<svg width="139" height="46" viewBox="0 0 139 46" fill="none" xmlns="http://www.w3.org/2000/svg">
<rect y="0.574768" width="44.8505" height="44.8505" rx="8" fill="white"/>
<path d="M39.1822 24.4157L30.2108 15.5813C30.1584 15.529 30.1019 15.4787 30.0411 15.4306C29.3815 14.9029 28.4705 14.7982 27.7019 15.1541C27.4674 15.2568 27.2559 15.4033 27.0779 15.5834L24.9879 17.5538L22.8916 19.6185L27.9616 24.644C28.0998 24.7801 28.3344 25.0272 28.6339 25.3455C29.3542 26.1014 30.46 27.2384 31.505 28.2079C31.9385 28.5953 32.3091 28.9261 32.6421 29.19L32.8997 29.3868C33.0568 29.4999 33.2264 29.5899 33.4107 29.6507C33.773 29.7616 34.152 29.8203 34.5332 29.8224C35.2033 29.8328 35.8692 29.7344 36.5059 29.5334C36.5059 29.5334 36.9415 29.3952 36.9854 29.3826C37.1572 29.2675 37.3184 29.1376 37.4713 28.9994C38.1749 28.3754 38.9498 27.5755 38.9561 27.5651C39.8105 26.7275 40.1288 25.335 39.1822 24.4199V24.4157Z" fill="#B4B4EC"/>
<path fill-rule="evenodd" clip-rule="evenodd" d="M34.5296 29.8191C35.1998 29.8275 35.8678 29.7291 36.5065 29.526L36.9861 29.3773C36.8814 29.4527 36.7767 29.528 36.672 29.6034C36.4772 29.7437 36.2573 29.8547 36.0416 29.9594C35.5663 30.1918 35.0825 30.3635 34.5527 30.4159C34.4605 30.4243 34.3684 30.4305 34.2762 30.4326H10.4214C10.0528 30.4368 9.69473 30.3112 9.41411 30.0767L6.86131 27.566C6.05714 26.7975 5.69485 25.5139 6.56184 24.5612L15.6632 15.5446C15.7658 15.4461 15.8768 15.3561 15.9982 15.2765C16.8736 14.7928 17.9563 14.8787 18.7437 15.4922L18.794 15.5425L20.9363 17.6825L21.3174 18.0573L22.8944 19.6089C24.0713 20.7648 25.2482 21.9186 26.4272 23.0745C28.1403 24.7559 29.7507 26.5483 31.5098 28.1795C31.9308 28.5669 32.3119 28.8978 32.647 29.1616L32.9046 29.3584C33.0574 29.4778 33.2312 29.572 33.4155 29.6411C33.7778 29.7521 34.1569 29.8107 34.5338 29.8128L34.5296 29.8191ZM16.0129 21.1333C15.948 21.1983 15.9103 21.2862 15.9103 21.3783C15.9061 21.4684 15.9375 21.5605 16.0003 21.6275L17.3469 22.9509C17.4202 23.0179 17.5165 23.0514 17.6107 23.0472C17.7092 23.043 17.7992 22.997 17.862 22.9237L18.9657 21.8453C19.0306 21.7825 19.0683 21.6945 19.0683 21.6003C19.0683 21.5061 19.0306 21.4223 18.9657 21.3574L17.6191 20.0361C17.571 19.9859 17.5102 19.9524 17.4453 19.9398H17.3741C17.284 19.9398 17.1961 19.9754 17.127 20.0382L16.0108 21.1313L16.0129 21.1333Z" fill="#8485F3"/>
<path fill-rule="evenodd" clip-rule="evenodd" d="M54.8755 14.9807H52.9922L52.9751 35.7276H54.8584V27.7123C56.5362 29.7581 58.5037 30.7811 60.7608 30.7811C62.7784 30.8028 64.7104 29.9545 66.0768 28.4469C67.5266 26.959 68.3257 24.9412 68.294 22.8483C68.3314 20.7569 67.5258 18.7407 66.064 17.2671C64.682 15.7679 62.7443 14.926 60.7223 14.946C58.3225 14.9431 56.3736 15.9834 54.8755 18.0669V14.9807ZM64.7147 18.5885C65.8311 19.7242 66.4485 21.2697 66.4268 22.8744C66.4548 24.5049 65.8237 26.0759 64.6805 27.2211C63.6041 28.3578 62.1199 29.0027 60.5671 29.0085C59.0142 29.0142 57.5255 28.3802 56.441 27.2515C55.3082 26.1019 54.6894 24.5307 54.729 22.9048C54.6887 21.2855 55.2937 19.7183 56.4068 18.5581C57.5048 17.4287 59.0042 16.7955 60.567 16.8012C62.1299 16.8069 63.6247 17.4511 64.7147 18.5885Z" fill="white"/>
<path d="M71.1309 14.8358H73.0698V17.3656C73.4654 16.6384 73.9759 15.9821 74.5807 15.4227C75.0349 15.0239 75.6154 14.8047 76.2158 14.8054C76.8527 14.8166 77.4767 14.9899 78.0306 15.3096L77.0333 16.957C76.7765 16.7934 76.4803 16.7047 76.1772 16.7006C75.5318 16.737 74.9371 17.0677 74.5593 17.6004C74.012 18.2744 73.6279 19.0694 73.4379 19.9215C73.1953 20.8691 73.0741 22.5889 73.0741 25.0811V30.584H71.1351L71.1309 14.8358Z" fill="white"/>
<path fill-rule="evenodd" clip-rule="evenodd" d="M81.7157 17.1278C80.2605 18.6106 79.459 20.6289 79.4943 22.7221C79.4641 24.7917 80.2591 26.7858 81.6986 28.2511C83.1277 29.7274 85.0809 30.559 87.1195 30.559C89.1581 30.559 91.1112 29.7274 92.5404 28.2511C95.4722 25.137 95.4608 20.228 92.5147 17.1278C91.0982 15.6441 89.1502 14.8066 87.1152 14.8066C85.0802 14.8066 83.1322 15.6441 81.7157 17.1278ZM91.1192 18.4834C92.2289 19.6166 92.8455 21.1538 92.8313 22.7519C92.86 24.3417 92.2531 25.8754 91.1492 27.003C90.0915 28.1404 88.6104 28.7717 87.0702 28.7417C85.5417 28.7754 84.0723 28.1424 83.0339 27.003C81.9596 25.8706 81.3743 24.35 81.4074 22.778C81.3846 21.1764 81.9897 19.6314 83.0896 18.4834C84.1181 17.3351 85.5758 16.6805 87.1044 16.6805C88.633 16.6805 90.0907 17.3351 91.1192 18.4834Z" fill="white"/>
<path d="M104.392 9.4512V11.3377C103.79 11.0478 103.136 10.8852 102.47 10.8595C102.028 10.7943 101.593 11.012 101.374 11.4072C101.175 11.98 101.091 12.5874 101.126 13.1937V14.8237H104.199V16.4538H101.126V30.5284H99.2127V16.4538H97.3037V14.8237H99.2127V12.8851C99.2127 11.5724 99.4538 10.606 99.936 9.98585C100.415 9.36861 101.16 9.06 102.179 9.06C102.931 9.08726 103.675 9.21888 104.392 9.4512Z" fill="white"/>
<path fill-rule="evenodd" clip-rule="evenodd" d="M120.902 26.0584L119.305 25.2195C118.078 27.5841 116.234 28.7679 113.771 28.7708C112.318 28.8001 110.92 28.2068 109.919 27.1364C108.836 25.9721 108.24 24.4261 108.258 22.8245H121.394C121.328 20.3642 120.582 18.4097 119.155 16.9607C117.737 15.5333 115.806 14.7561 113.809 14.8091C111.787 14.7696 109.845 15.6132 108.476 17.1259C105.609 20.2521 105.609 25.0969 108.476 28.2231C109.882 29.7471 111.865 30.5845 113.921 30.5225C117 30.5225 119.327 29.0345 120.902 26.0584ZM117.383 17.8512C118.417 18.6686 119.105 19.8567 119.304 21.1721H108.45C109.292 18.1584 111.086 16.6515 113.834 16.6515C115.117 16.6325 116.367 17.0554 117.383 17.8512Z" fill="white"/>
<path fill-rule="evenodd" clip-rule="evenodd" d="M138.521 25.9975L136.933 25.163C135.712 27.516 133.87 28.6882 131.407 28.6795C129.968 28.7043 128.584 28.1145 127.594 27.0538C126.514 25.896 125.921 24.3577 125.937 22.7636H139C138.94 20.3004 138.197 18.356 136.77 16.9303C135.362 15.5128 133.445 14.7404 131.463 14.7917C129.451 14.7524 127.518 15.5912 126.155 17.0955C123.304 20.2062 123.304 25.0254 126.155 28.1361C127.553 29.6558 129.527 30.4918 131.574 30.4312C134.633 30.4312 136.949 28.9533 138.521 25.9975ZM135.019 17.83C136.047 18.6458 136.731 19.8284 136.932 21.1378H126.129C126.968 18.1386 128.754 16.639 131.488 16.639C132.763 16.6197 134.008 17.0395 135.019 17.83Z" fill="white"/>
</svg>
