<svg width="140" height="28" viewBox="0 0 140 28" fill="none" xmlns="http://www.w3.org/2000/svg">
<path d="M35.7962 16.1229L26.1015 6.66609C26.0438 6.60921 25.9827 6.55574 25.9185 6.50596C25.2036 5.94225 24.2211 5.82672 23.3893 6.20857C23.1376 6.32014 22.9087 6.47514 22.7135 6.66609L20.4565 8.77524L18.19 10.985L23.6943 16.3517C23.8444 16.4981 24.0978 16.7635 24.4216 17.102C25.2006 17.9118 26.369 19.138 27.4999 20.1765C27.9691 20.5929 28.368 20.9452 28.7293 21.2288L29.0062 21.4393C29.1746 21.5611 29.3614 21.6568 29.5599 21.7229C29.9518 21.8425 30.3599 21.9042 30.7705 21.906C31.4948 21.9163 32.216 21.8112 32.9056 21.5948C32.9056 21.5948 33.3749 21.4484 33.4218 21.4347C33.606 21.3089 33.7816 21.1713 33.9473 21.0229C34.7075 20.355 35.5475 19.4994 35.5522 19.4903C36.4766 18.5935 36.8191 17.102 35.7962 16.1229Z" fill="#B8B9F5"/>
<path fill-rule="evenodd" clip-rule="evenodd" d="M30.7705 21.9059C31.4948 21.9162 32.216 21.8111 32.9055 21.5948L33.4593 21.4438L32.99 21.7458L32.9102 21.7915L32.7929 21.8602L32.5677 21.9745L32.3706 22.0706C31.7943 22.3788 31.1507 22.5482 30.4936 22.5647H30.137H22.9012H4.86332H4.71316C4.31513 22.5706 3.9284 22.4357 3.6245 22.185L0.865327 19.4994C-0.00278068 18.6758 -0.396949 17.3033 0.541546 16.283V16.2556C0.54973 16.2476 0.557342 16.2363 0.564981 16.2249C0.579244 16.2037 0.593599 16.1824 0.611934 16.1824L10.377 6.63402C10.4878 6.52706 10.6088 6.43056 10.7383 6.34578C11.6838 5.82958 12.8555 5.92177 13.7039 6.57911L13.7602 6.63402L16.0736 8.9216L16.4866 9.32421L18.1899 10.985L23.6942 16.3334C23.8391 16.4746 24.08 16.7265 24.3875 17.0481L24.4216 17.0837C24.6249 17.2892 24.8549 17.5261 25.1038 17.7827C25.8081 18.5085 26.6642 19.3908 27.4998 20.1582C27.955 20.5745 28.3679 20.9268 28.7292 21.2105L29.0061 21.4209C29.1733 21.5492 29.3602 21.6511 29.5598 21.7229C29.9517 21.8425 30.3598 21.9041 30.7705 21.9059ZM10.758 12.6138C10.6861 12.6825 10.6455 12.7765 10.6454 12.8746C10.6405 12.9724 10.676 13.0679 10.7439 13.14L12.1986 14.5583C12.2757 14.629 12.3792 14.6656 12.4849 14.6596C12.5905 14.6535 12.6889 14.6053 12.757 14.5262L12.9869 14.3066L13.0714 14.2243L13.489 13.8171L13.5735 13.7347L13.9489 13.3733C14.0205 13.3045 14.0609 13.2106 14.0609 13.1125C14.0609 13.0145 14.0205 12.9205 13.9489 12.8517L12.4942 11.438C12.4443 11.3858 12.3785 11.3505 12.3065 11.3374H12.2314C12.1317 11.3378 12.036 11.3754 11.964 11.4426L10.758 12.6138Z" fill="#8485F3"/>
<path fill-rule="evenodd" clip-rule="evenodd" d="M46.6415 6.07593H44.5768V27.9361H46.6415V19.4995C48.4841 21.6345 50.6395 22.7021 53.1078 22.7021C55.3197 22.725 57.4378 21.8321 58.9358 20.2452C60.5249 18.6809 61.4011 16.5585 61.3665 14.357C61.4024 12.1526 60.5144 10.0293 58.9077 8.4779C57.3901 6.90063 55.2648 6.01466 53.0468 6.03476C50.4158 6.03476 48.2808 7.13127 46.6415 9.3243V6.07593ZM57.4245 9.8688C58.6492 11.0656 59.3261 12.6941 59.3015 14.3845H59.2921C59.3287 16.0986 58.6456 17.753 57.4011 18.9642C56.2211 20.1613 54.5934 20.8401 52.8905 20.8452C51.1877 20.8504 49.5557 20.1815 48.3681 18.9917C47.1243 17.7828 46.4454 16.1282 46.4911 14.4165C46.4459 12.7119 47.1093 11.0619 48.3305 9.84135C49.5325 8.6551 51.1732 7.98974 52.8834 7.9949C54.5937 8.00006 56.2301 8.67532 57.4245 9.8688Z" fill="black"/>
<path d="M64.4534 6.06694H66.5791V8.72968C67.0097 7.96484 67.5679 7.27524 68.2308 6.68916C68.7287 6.26882 69.3648 6.03667 70.0233 6.03491C70.7224 6.04566 71.4072 6.22989 72.013 6.57021L70.9196 8.28589C70.6377 8.11507 70.313 8.02325 69.9811 8.02053C69.2735 8.05883 68.6216 8.40692 68.2074 8.96759C67.6094 9.67839 67.1886 10.5147 66.9779 11.4107C66.7151 12.4081 66.5838 14.2184 66.5838 16.8414V22.6336H64.4581L64.4534 6.06694Z" fill="black"/>
<path fill-rule="evenodd" clip-rule="evenodd" d="M76.0532 8.48241C74.4609 10.0447 73.5843 12.1684 73.6225 14.3706C73.5875 16.548 74.4595 18.6462 76.0392 20.1857C77.606 21.7396 79.7472 22.6149 81.9822 22.6149C84.2171 22.6149 86.3584 21.7396 87.9252 20.1857C91.1423 16.9101 91.1278 11.7408 87.8924 8.48241C86.3408 6.91831 84.2046 6.03516 81.9728 6.03516C79.741 6.03516 77.6048 6.91831 76.0532 8.48241ZM86.3639 9.90979C87.5787 11.1036 88.2543 12.7209 88.2409 14.4026C88.2732 16.077 87.6058 17.6922 86.392 18.8771C85.2328 20.0748 83.6088 20.7394 81.9201 20.7072C80.2447 20.7415 78.6343 20.0754 77.4951 18.8771C76.3174 17.6852 75.6756 16.0847 75.712 14.4301C75.6869 12.7444 76.3504 11.1181 77.5561 9.90979C78.6846 8.70088 80.2834 8.0118 81.96 8.0118C83.6365 8.0118 85.2354 8.70088 86.3639 9.90979Z" fill="black"/>
<path d="M100.918 0.402786V2.38383C100.257 2.07924 99.5383 1.90806 98.8069 1.88056C98.3198 1.80937 97.8388 2.04115 97.6009 2.46161C97.3855 3.06358 97.2931 3.70083 97.3287 4.33743V6.05769H100.698V7.77337H97.3287V22.5969H95.2547V7.77337H93.1431V6.05769H95.2547V4.03547C95.2547 2.65377 95.5175 1.63808 96.043 0.988407C96.6563 0.299392 97.5692 -0.0641057 98.5019 0.00932216C99.3219 0.0337032 100.135 0.166056 100.918 0.402786Z" fill="black"/>
<path fill-rule="evenodd" clip-rule="evenodd" d="M119.013 17.8799L117.268 16.9969C115.922 19.4828 113.903 20.7257 111.21 20.7257C109.617 20.7571 108.085 20.1345 106.986 19.01C105.793 17.7951 105.131 16.1762 105.138 14.4943H119.543C119.484 11.8895 118.664 9.83223 117.085 8.32243C115.539 6.81443 113.428 5.98798 111.242 6.03485C109.025 5.99204 106.895 6.88021 105.396 8.47341C102.253 11.7639 102.253 16.8633 105.396 20.1538C106.934 21.7598 109.107 22.6432 111.36 22.5786C114.735 22.5786 117.286 21.0124 119.013 17.8799ZM115.156 9.23738C116.292 10.0981 117.048 11.3505 117.267 12.7374H105.362C106.288 9.56222 108.258 7.97463 111.27 7.97463C112.674 7.95528 114.044 8.4004 115.156 9.23738Z" fill="black"/>
<path fill-rule="evenodd" clip-rule="evenodd" d="M138.67 17.8205L136.933 16.9421C135.594 19.4188 133.577 20.6571 130.88 20.6571C129.3 20.6845 127.782 20.0636 126.694 18.946C125.509 17.7267 124.858 16.1054 124.878 14.4257H139.195C139.129 11.8362 138.315 9.78957 136.75 8.28587C135.208 6.79506 133.108 5.98215 130.936 6.03489C128.729 5.99171 126.609 6.87679 125.118 8.4643C121.987 11.7367 121.987 16.8128 125.118 20.0852C126.649 21.6834 128.812 22.5618 131.054 22.4963C134.404 22.4963 136.943 20.9377 138.67 17.8205ZM134.832 9.22378C135.963 10.0783 136.715 11.3225 136.935 12.7009H125.086C126.006 9.54404 127.966 7.96561 130.966 7.96561C132.363 7.9462 133.727 8.38977 134.832 9.22378Z" fill="black"/>
</svg>
